<?xml version="1.0" encoding="UTF-8" standalone="no"?>
<svg
   xmlns:dc="http://purl.org/dc/elements/1.1/"
   xmlns:cc="http://creativecommons.org/ns#"
   xmlns:rdf="http://www.w3.org/1999/02/22-rdf-syntax-ns#"
   xmlns:svg="http://www.w3.org/2000/svg"
   xmlns="http://www.w3.org/2000/svg"
   xmlns:sodipodi="http://sodipodi.sourceforge.net/DTD/sodipodi-0.dtd"
   xmlns:inkscape="http://www.inkscape.org/namespaces/inkscape"
   width="30.717276"
   height="54"
   viewBox="0 0 30.717276 54"
   version="1.1"
   id="svg2"
   inkscape:version="0.91 r13725"
   sodipodi:docname="logo.svg">
  <metadata
     id="metadata17">
    <rdf:RDF>
      <cc:Work
         rdf:about="">
        <dc:format>image/svg+xml</dc:format>
        <dc:type
           rdf:resource="http://purl.org/dc/dcmitype/StillImage" />
        <dc:title>Logo</dc:title>
      </cc:Work>
    </rdf:RDF>
  </metadata>
  <sodipodi:namedview
     pagecolor="#ffffff"
     bordercolor="#666666"
     borderopacity="1"
     objecttolerance="10"
     gridtolerance="10"
     guidetolerance="10"
     inkscape:pageopacity="0"
     inkscape:pageshadow="2"
     inkscape:window-width="970"
     inkscape:window-height="721"
     id="namedview15"
     showgrid="false"
     fit-margin-top="0"
     fit-margin-left="0"
     fit-margin-right="0"
     fit-margin-bottom="0"
     inkscape:zoom="0.68804665"
     inkscape:cx="97.5249"
     inkscape:cy="171.04079"
     inkscape:window-x="0"
     inkscape:window-y="0"
     inkscape:window-maximized="0"
     inkscape:current-layer="svg2" />
  <!-- Generator: Sketch 42 (36781) - http://www.bohemiancoding.com/sketch -->
  <title
     id="title4">Logo</title>
  <desc
     id="desc6">Created with Sketch.</desc>
  <defs
     id="defs8" />
  <g
     id="Page-1"
     transform="matrix(0.15768426,0,0,0.15768426,-0.07491579,-0.01329328)"
     style="fill:none;fill-rule:evenodd;stroke:none;stroke-width:1">
    <g
       id="Logo">
      <path
         d="m 20.8218,99.2101 c 0,0 13.34,64.4217 69.5364,45.8377 l -0.0659,-7.3413 c 0,0 -10.1766,-53.5408 -69.4705,-38.4964"
         id="Fill-1"
         inkscape:connector-curvature="0"
         style="fill:#2cd27a" />
      <path
         d="m 10.6555,217.6971 c -6.261,5.9844 -10.1804,15.5782 -10.1804,26.8143 0,15.9245 14.9217,29.6328 26.8764,34.3767 7.256,44.0117 51.9422,63.6527 68.7959,63.6527 14.9268,0 61.6936,-19.1409 68.8088,-63.3193 13.1578,-4.6431 26.8609,-19.5351 26.8609,-34.7075 0,-10.5254 -3.8342,-19.9098 -9.7966,-26.0351 1.6166,-18.0567 0.4018,-33.5211 -3.0343,-46.6389 l -165.8599,0 c -3.3159,12.9239 -4.3627,28.1273 -2.4708,45.8571"
         id="Fill-3"
         inkscape:connector-curvature="0"
         style="fill:#3f4451" />
      <path
         d="m 195.184,101.0446 c -0.6655,-10.285 -4.5952,-19.5014 -10.6495,-26.928 -0.6409,-0.663 -1.2354,-1.3543 -1.7807,-2.0754 -10.3135,-11.3228 -25.7973,-17.8784 -41.8226,-16.6817 -16.2592,1.216 -30.0902,9.7242 -39.1502,21.905 l 0.0685,-29.5694 C 101.7616,42.8194 101.5341,39.0434 100.512,34.9185 95.8947,16.2984 80.0607,1.1829 59.6921,0.1374 38.2342,-0.9649 18.0375,15.2155 17.2932,37.5121 16.6806,55.8557 30.7701,73.1164 50.0661,73.2611 65.329,73.3748 79.7338,61.3736 79.1871,45.0783 78.7788,32.9285 68.716,21.3266 55.3346,22.7532 c -4.5474,0.4846 -8.6749,2.6065 -11.7375,6.0155 -3.0627,3.409 -4.9494,8.6568 -3.4956,13.9215 0.8684,3.1518 4.1288,5.0023 7.2832,4.1352 3.1544,-0.8671 5.0075,-4.1249 4.1391,-7.2767 -0.3127,-1.1307 -0.0853,-1.8053 0.8852,-2.8856 0.9718,-1.0803 2.8016,-2.0108 4.1882,-2.1581 5.7092,-0.6086 10.5564,5.0553 10.7541,10.9622 0.3011,8.9541 -8.211,16.0356 -17.1999,15.971 C 38.0132,61.3491 28.7258,49.9462 29.1277,37.8998 29.6381,22.6382 43.9576,11.172 59.0861,11.9487 c 14.5366,0.7469 26.1178,11.6639 29.7555,25.1835 0.9653,3.5886 1.2974,7.1462 1.3388,11.1793 l 0,34.197 0,89.3325 12.0231,0 -0.354,-58.883 c 0.7999,-25.3115 16.5383,-44.3232 39.9475,-46.0729 20.7769,-1.552 40.4813,13.9228 41.8394,34.9052 1.1501,17.7595 -12.195,34.5885 -30.1613,35.5099 -14.7769,0.7599 -28.763,-10.4401 -29.2606,-25.3463 -0.3928,-11.766 8.6788,-22.904 20.534,-22.9906 8.7809,-0.0646 17.094,6.8529 16.8007,15.5989 -0.1939,5.7699 -4.9274,11.302 -10.5048,10.7076 -1.3543,-0.1447 -3.1415,-1.0532 -4.09,-2.109 -0.9485,-1.0544 -1.1708,-1.7122 -0.8658,-2.8184 0.8477,-3.0768 -0.9615,-6.2597 -4.0422,-7.1061 -3.0807,-0.8477 -6.2661,0.9601 -7.1139,4.0383 -1.4202,5.1432 0.4226,10.2683 3.4142,13.5971 2.9916,3.3302 7.0234,5.403 11.4649,5.8759 13.0699,1.3931 22.8988,-9.9387 23.2968,-21.8055 0.5337,-15.9168 -13.5351,-27.6375 -28.4426,-27.5277 -18.8476,0.1422 -32.6088,17.001 -32.0105,34.9181 0.7263,21.7771 20.4539,37.5814 41.413,36.505 24.7635,-1.2716 42.6664,-23.8357 41.1157,-47.7929"
         id="Fill-4"
         inkscape:connector-curvature="0"
         style="fill:#28a79a" />
    </g>
  </g>
</svg>
