<?xml version="1.0" encoding="UTF-8"?>
<svg viewBox="0 0 100 100" version="1.1" xmlns="http://www.w3.org/2000/svg" xmlns:xlink="http://www.w3.org/1999/xlink">
    <!-- Generator: Sketch 42 (36781) - http://www.bohemiancoding.com/sketch -->
    <title>Artboard</title>
    <desc>Created with Sketch.</desc>
    <defs>
        <path d="M69.1860465,29.4545455 L35.8139535,29.4545455 L35.8139535,43.3636364 L55.0232558,43.3636364 C53.2325581,52.2 45.744186,57.2727273 35.8139535,57.2727273 C24.0930233,57.2727273 14.6511628,47.7818182 14.6511628,36 C14.6511628,24.2181818 24.0930233,14.7272727 35.8139535,14.7272727 C40.8604651,14.7272727 45.4186047,16.5272727 49,19.4727273 L59.4186047,9 C53.0697674,3.43636364 44.9302326,0 35.8139535,0 C15.9534884,0 0,16.0363636 0,36 C0,55.9636364 15.9534884,72 35.8139535,72 C53.7209302,72 70,58.9090909 70,36 C70,33.8727273 69.6744186,31.5818182 69.1860465,29.4545455 Z" id="path-1"></path>
        <path d="M69.1860465,29.4545455 L35.8139535,29.4545455 L35.8139535,43.3636364 L55.0232558,43.3636364 C53.2325581,52.2 45.744186,57.2727273 35.8139535,57.2727273 C24.0930233,57.2727273 14.6511628,47.7818182 14.6511628,36 C14.6511628,24.2181818 24.0930233,14.7272727 35.8139535,14.7272727 C40.8604651,14.7272727 45.4186047,16.5272727 49,19.4727273 L59.4186047,9 C53.0697674,3.43636364 44.9302326,0 35.8139535,0 C15.9534884,0 0,16.0363636 0,36 C0,55.9636364 15.9534884,72 35.8139535,72 C53.7209302,72 70,58.9090909 70,36 C70,33.8727273 69.6744186,31.5818182 69.1860465,29.4545455 Z" id="path-3"></path>
        <path d="M69.1860465,29.4545455 L35.8139535,29.4545455 L35.8139535,43.3636364 L55.0232558,43.3636364 C53.2325581,52.2 45.744186,57.2727273 35.8139535,57.2727273 C24.0930233,57.2727273 14.6511628,47.7818182 14.6511628,36 C14.6511628,24.2181818 24.0930233,14.7272727 35.8139535,14.7272727 C40.8604651,14.7272727 45.4186047,16.5272727 49,19.4727273 L59.4186047,9 C53.0697674,3.43636364 44.9302326,0 35.8139535,0 C15.9534884,0 0,16.0363636 0,36 C0,55.9636364 15.9534884,72 35.8139535,72 C53.7209302,72 70,58.9090909 70,36 C70,33.8727273 69.6744186,31.5818182 69.1860465,29.4545455 Z" id="path-5"></path>
        <path d="M69.1860465,29.4545455 L35.8139535,29.4545455 L35.8139535,43.3636364 L55.0232558,43.3636364 C53.2325581,52.2 45.744186,57.2727273 35.8139535,57.2727273 C24.0930233,57.2727273 14.6511628,47.7818182 14.6511628,36 C14.6511628,24.2181818 24.0930233,14.7272727 35.8139535,14.7272727 C40.8604651,14.7272727 45.4186047,16.5272727 49,19.4727273 L59.4186047,9 C53.0697674,3.43636364 44.9302326,0 35.8139535,0 C15.9534884,0 0,16.0363636 0,36 C0,55.9636364 15.9534884,72 35.8139535,72 C53.7209302,72 70,58.9090909 70,36 C70,33.8727273 69.6744186,31.5818182 69.1860465,29.4545455 Z" id="path-7"></path>
    </defs>
    <g id="Page-1" stroke="none" stroke-width="1" fill="none" fill-rule="evenodd">
        <g id="Artboard">
            <g id="Group">
                <g id="doc">
                    <polygon id="Shape" fill="#FFFFFF" fill-rule="nonzero" points="0 0 100 0 100 100 0 100"></polygon>
                    <path d="M100,100 L0,100 L0,0 L100,0 L100,100 Z M9.7,90 L90.4,90 L90.4,10 L9.7,10 L9.7,90 Z" id="Shape" fill="#34A853" fill-rule="nonzero"></path>
                    <g id="Google__G__Logo" transform="translate(15.000000, 14.000000)">
                        <g id="Clipped">
                            <mask id="mask-2" fill="white">
                                <use xlink:href="#path-1"></use>
                            </mask>
                            <g id="a"></g>
                            <polygon id="Shape" fill="#FBBC05" fill-rule="nonzero" mask="url(#mask-2)" points="-3.25581395 57.2727273 -3.25581395 14.7272727 24.4186047 36"></polygon>
                        </g>
                        <g id="Clipped">
                            <mask id="mask-4" fill="white">
                                <use xlink:href="#path-3"></use>
                            </mask>
                            <g id="a"></g>
                            <polygon id="Shape" fill="#EA4335" fill-rule="nonzero" mask="url(#mask-4)" points="-3.25581395 14.7272727 24.4186047 36 35.8139535 26.0181818 74.8837209 19.6363636 74.8837209 -3.27272727 -3.25581395 -3.27272727"></polygon>
                        </g>
                        <g id="Clipped">
                            <mask id="mask-6" fill="white">
                                <use xlink:href="#path-5"></use>
                            </mask>
                            <g id="a"></g>
                            <polygon id="Shape" fill="#34A853" fill-rule="nonzero" mask="url(#mask-6)" points="-3.25581395 57.2727273 45.5813953 19.6363636 58.4418605 21.2727273 74.8837209 -3.27272727 74.8837209 75.2727273 -3.25581395 75.2727273"></polygon>
                        </g>
                        <g id="Clipped">
                            <mask id="mask-8" fill="white">
                                <use xlink:href="#path-7"></use>
                            </mask>
                            <g id="a"></g>
                            <polygon id="Shape" fill="#4285F4" fill-rule="nonzero" mask="url(#mask-8)" points="74.8837209 75.2727273 24.4186047 36 17.9069767 31.0909091 74.8837209 14.7272727"></polygon>
                        </g>
                    </g>
                </g>
            </g>
        </g>
    </g>
</svg>